<svg width="20" height="20" viewBox="0 0 20 20" fill="none" xmlns="http://www.w3.org/2000/svg">
<g id="uil:language">
<path id="Vector" d="M17.5464 9.99933H15.8797C15.6587 9.99933 15.4467 10.0871 15.2904 10.2434C15.1342 10.3997 15.0464 10.6117 15.0464 10.8327C15.0464 11.0537 15.1342 11.2656 15.2904 11.4219C15.4467 11.5782 15.6587 11.666 15.8797 11.666V13.3327H14.8914C14.9904 13.0658 15.0425 12.7839 15.0455 12.4993C15.0455 11.949 14.8639 11.4141 14.5289 10.9775C14.1939 10.5409 13.7242 10.2271 13.1926 10.0846C12.661 9.9422 12.0973 9.97913 11.5889 10.1897C11.0805 10.4003 10.6557 10.7728 10.3805 11.2493C10.325 11.3441 10.2887 11.449 10.2738 11.5579C10.2589 11.6668 10.2657 11.7775 10.2938 11.8838C10.3219 11.99 10.3707 12.0897 10.4375 12.177C10.5042 12.2643 10.5876 12.3375 10.6828 12.3925C10.7779 12.4474 10.883 12.483 10.992 12.4972C11.101 12.5113 11.2117 12.5038 11.3178 12.475C11.4238 12.4462 11.5232 12.3967 11.61 12.3294C11.6969 12.2621 11.7695 12.1782 11.8239 12.0827C11.897 11.956 12.0022 11.8508 12.1289 11.7776C12.2556 11.7045 12.3993 11.666 12.5455 11.666C12.7665 11.666 12.9785 11.7538 13.1348 11.9101C13.2911 12.0664 13.3789 12.2783 13.3789 12.4993C13.3789 12.7203 13.2911 12.9323 13.1348 13.0886C12.9785 13.2449 12.7665 13.3327 12.5455 13.3327C12.3245 13.3327 12.1126 13.4205 11.9563 13.5767C11.8 13.733 11.7122 13.945 11.7122 14.166C11.7122 14.387 11.8 14.599 11.9563 14.7553C12.1126 14.9115 12.3245 14.9993 12.5455 14.9993C12.7665 14.9993 12.9785 15.0871 13.1348 15.2434C13.2911 15.3997 13.3789 15.6117 13.3789 15.8327C13.3789 16.0537 13.2911 16.2656 13.1348 16.4219C12.9785 16.5782 12.7665 16.666 12.5455 16.666C12.3993 16.666 12.2556 16.6275 12.1289 16.5543C12.0022 16.4812 11.897 16.376 11.8239 16.2493C11.7695 16.1538 11.6969 16.0699 11.61 16.0026C11.5232 15.9353 11.4238 15.8858 11.3178 15.857C11.2117 15.8282 11.101 15.8207 10.992 15.8348C10.883 15.849 10.7779 15.8846 10.6828 15.9395C10.5876 15.9945 10.5042 16.0677 10.4375 16.155C10.3707 16.2423 10.3219 16.342 10.2938 16.4482C10.2657 16.5545 10.2589 16.6652 10.2738 16.7741C10.2887 16.883 10.325 16.9879 10.3805 17.0827C10.6557 17.5592 11.0805 17.9317 11.5889 18.1423C12.0973 18.3529 12.661 18.3898 13.1926 18.2474C13.7242 18.1049 14.1939 17.7911 14.5289 17.3545C14.8639 16.9179 15.0455 16.383 15.0455 15.8327C15.0425 15.5481 14.9904 15.2662 14.8914 14.9993H15.8789V17.4993C15.8789 17.7203 15.9667 17.9323 16.1229 18.0886C16.2792 18.2449 16.4912 18.3327 16.7122 18.3327C16.9332 18.3327 17.1452 18.2449 17.3015 18.0886C17.4577 17.9323 17.5455 17.7203 17.5455 17.4993V11.666C17.7665 11.666 17.9785 11.5782 18.1348 11.4219C18.2911 11.2656 18.3789 11.0537 18.3789 10.8327C18.3789 10.6117 18.2911 10.3997 18.1348 10.2434C17.9785 10.0871 17.7674 9.99933 17.5464 9.99933ZM7.57137 9.3685C7.59732 9.47533 7.64416 9.57597 7.70917 9.66461C7.77419 9.75326 7.8561 9.82817 7.9502 9.88502C8.04429 9.94187 8.14871 9.97955 8.25742 9.99587C8.36614 10.0122 8.47701 10.0068 8.58365 9.98013C8.69029 9.95341 8.79059 9.90586 8.87878 9.84021C8.96696 9.77456 9.04128 9.69211 9.09746 9.59762C9.15364 9.50312 9.19056 9.39844 9.20611 9.28961C9.22165 9.18078 9.21551 9.06995 9.18803 8.9635L7.72387 3.10517C7.62145 2.69365 7.3843 2.32823 7.05018 2.06708C6.71606 1.80593 6.30419 1.66406 5.88012 1.66406C5.45605 1.66406 5.04417 1.80593 4.71005 2.06708C4.37594 2.32823 4.13879 2.69365 4.03637 3.10517L2.57137 8.9635C2.54389 9.06995 2.53775 9.18078 2.5533 9.28961C2.56884 9.39844 2.60577 9.50312 2.66194 9.59762C2.71812 9.69211 2.79244 9.77456 2.88063 9.84021C2.96881 9.90586 3.06911 9.95341 3.17575 9.98013C3.28239 10.0068 3.39326 10.0122 3.50198 9.99587C3.6107 9.97955 3.71511 9.94187 3.8092 9.88502C3.9033 9.82817 3.98521 9.75326 4.05023 9.66461C4.11525 9.57597 4.16208 9.47533 4.18803 9.3685L4.65387 7.49933H7.10387L7.57137 9.3685ZM5.07137 5.83267L5.6522 3.51017C5.66972 3.46401 5.70086 3.42427 5.7415 3.39623C5.78213 3.36819 5.83033 3.35317 5.8797 3.35317C5.92907 3.35317 5.97727 3.36819 6.01791 3.39623C6.05854 3.42427 6.08968 3.46401 6.1072 3.51017L6.68803 5.83267H5.07137ZM11.713 5.83267H12.5464C12.7673 5.83289 12.9791 5.92075 13.1354 6.07699C13.2916 6.23322 13.3795 6.44505 13.3797 6.666V7.49933C13.3797 7.72035 13.4675 7.93231 13.6238 8.08859C13.7801 8.24487 13.992 8.33267 14.213 8.33267C14.434 8.33267 14.646 8.24487 14.8023 8.08859C14.9586 7.93231 15.0464 7.72035 15.0464 7.49933V6.666C15.0457 6.00316 14.7821 5.36766 14.3134 4.89896C13.8447 4.43027 13.2092 4.16666 12.5464 4.166H11.713C11.492 4.166 11.2801 4.2538 11.1238 4.41008C10.9675 4.56636 10.8797 4.77832 10.8797 4.99933C10.8797 5.22035 10.9675 5.43231 11.1238 5.58859C11.2801 5.74487 11.492 5.83267 11.713 5.83267ZM8.3797 13.3327H7.54637C7.32542 13.3324 7.11359 13.2446 6.95736 13.0883C6.80112 12.9321 6.71325 12.7203 6.71303 12.4993V11.666C6.71303 11.445 6.62524 11.233 6.46896 11.0767C6.31268 10.9205 6.10072 10.8327 5.8797 10.8327C5.65869 10.8327 5.44673 10.9205 5.29045 11.0767C5.13417 11.233 5.04637 11.445 5.04637 11.666V12.4993C5.04703 13.1622 5.31063 13.7977 5.77933 14.2664C6.24803 14.7351 6.88353 14.9987 7.54637 14.9993H8.3797C8.60071 14.9993 8.81268 14.9115 8.96896 14.7553C9.12524 14.599 9.21303 14.387 9.21303 14.166C9.21303 13.945 9.12524 13.733 8.96896 13.5767C8.81268 13.4205 8.60071 13.3327 8.3797 13.3327Z" fill="#575757"/>
</g>
</svg>
