<svg width="40" height="40" viewBox="0 0 40 40" fill="none" xmlns="http://www.w3.org/2000/svg">
<g clip-path="url(#clip0_350_1621)">
<path d="M22.0006 23.2C23.5917 23.2 25.1176 22.5046 26.2427 21.2669C27.3678 20.0292 27.9998 18.3504 27.9998 16.6C27.9998 14.8496 27.3678 13.1708 26.2427 11.9331C25.1176 10.6954 23.5917 10 22.0006 10C20.4095 10 18.8836 10.6954 17.7586 11.9331C16.6335 13.1708 16.0014 14.8496 16.0014 16.6C16.0014 18.3504 16.6335 20.0292 17.7586 21.2669C18.8836 22.5046 20.4095 23.2 22.0006 23.2ZM14.0017 21C14.0017 22.1669 13.5803 23.2861 12.8303 24.1113C12.0802 24.9364 11.063 25.4 10.0022 25.4C8.94151 25.4 7.92423 24.9364 7.17418 24.1113C6.42414 23.2861 6.00276 22.1669 6.00276 21C6.00276 19.833 6.42414 18.7139 7.17418 17.8887C7.92423 17.0636 8.94151 16.6 10.0022 16.6C11.063 16.6 12.0802 17.0636 12.8303 17.8887C13.5803 18.7139 14.0017 19.833 14.0017 21ZM4.9829 37.1172C4.64152 36.9037 4.38587 36.5565 4.267 36.1448C3.91465 34.8893 3.91096 33.5467 4.25638 32.2889C4.60181 31.0311 5.28063 29.9154 6.20592 29.0845C7.13121 28.2537 8.26086 27.7457 9.45019 27.6254C10.6395 27.5052 11.8344 27.7782 12.8818 28.4096C10.7294 30.7367 9.38218 33.8169 9.07235 37.1194C9.02636 37.6078 9.04436 38.0918 9.12235 38.5582C7.66286 38.4193 6.24932 37.9273 4.9829 37.1172ZM34.8789 38.556C36.3382 38.4178 37.7518 37.9265 39.0184 37.1172C39.359 36.9033 39.6139 36.5561 39.7323 36.1448C40.0852 34.8892 40.0893 33.5462 39.7441 32.288C39.3989 31.0298 38.7201 29.9136 37.7947 29.0825C36.8693 28.2513 35.7394 27.7431 34.5498 27.6228C33.3602 27.5025 32.165 27.7757 31.1174 28.4074C33.2717 30.7344 34.6204 33.8155 34.9309 37.1194C34.9755 37.5993 34.958 38.0837 34.8789 38.5582V38.556ZM37.9985 21C37.9985 22.1669 37.5771 23.2861 36.8271 24.1113C36.077 24.9364 35.0597 25.4 33.999 25.4C32.9383 25.4 31.921 24.9364 31.171 24.1113C30.4209 23.2861 29.9996 22.1669 29.9996 21C29.9996 19.833 30.4209 18.7139 31.171 17.8887C31.921 17.0636 32.9383 16.6 33.999 16.6C35.0597 16.6 36.077 17.0636 36.8271 17.8887C37.5771 18.7139 37.9985 19.833 37.9985 21ZM12.6099 39.018C12.4127 38.8237 12.2598 38.581 12.1635 38.3097C12.0673 38.0383 12.0305 37.7459 12.056 37.456C12.3103 34.7488 13.4679 32.2416 15.3048 30.4187C17.1418 28.5959 19.5278 27.587 22.0016 27.587C24.4754 27.587 26.8614 28.5959 28.6984 30.4187C30.5354 32.2416 31.6929 34.7488 31.9473 37.456C31.973 37.7459 31.9362 38.0384 31.8399 38.3098C31.7437 38.5812 31.5907 38.8238 31.3934 39.018C28.8221 41.5853 25.4729 43.0051 22.0006 43C18.529 43.0048 15.1805 41.5849 12.6099 39.018Z" fill="#575757"/>
</g>
<defs>
<clipPath id="clip0_350_1621">
<rect width="40" height="40" fill="white"/>
</clipPath>
</defs>
</svg>
