<svg width="40" height="40" viewBox="0 0 40 40" fill="none" xmlns="http://www.w3.org/2000/svg">
<path d="M29 18C29.276 18 29.548 18.01 29.82 18.03C29.936 17.71 30 17.362 30 17V9.00002C30 8.20437 29.6839 7.4413 29.1213 6.8787C28.5587 6.31609 27.7956 6.00002 27 6.00002H21V5.00002C21.0056 4.86718 20.9836 4.73462 20.9354 4.61074C20.8871 4.48685 20.8137 4.37433 20.7196 4.28032C20.6256 4.18631 20.5131 4.11285 20.3892 4.0646C20.2653 4.01635 20.1328 3.99436 20 4.00002C19.448 4.00002 19 4.46002 19 5.00002V6.00002H13C12.2043 6.00002 11.4412 6.31609 10.8786 6.8787C10.316 7.4413 9.99995 8.20437 9.99995 9.00002V17C9.99995 17.7957 10.316 18.5587 10.8786 19.1213C11.4412 19.6839 12.2043 20 13 20H22.674C24.464 18.74 26.646 18 29 18ZM14 13C14 12.4696 14.2107 11.9609 14.5857 11.5858C14.9608 11.2107 15.4695 11 16 11C16.5304 11 17.0391 11.2107 17.4142 11.5858C17.7892 11.9609 18 12.4696 18 13C18 13.5304 17.7892 14.0392 17.4142 14.4142C17.0391 14.7893 16.5304 15 16 15C15.4695 15 14.9608 14.7893 14.5857 14.4142C14.2107 14.0392 14 13.5304 14 13ZM22 13C22 12.4696 22.2107 11.9609 22.5857 11.5858C22.9608 11.2107 23.4695 11 24 11C24.5304 11 25.0391 11.2107 25.4142 11.5858C25.7892 11.9609 26 12.4696 26 13C26 13.5304 25.7892 14.0392 25.4142 14.4142C25.0391 14.7893 24.5304 15 24 15C23.4695 15 22.9608 14.7893 22.5857 14.4142C22.2107 14.0392 22 13.5304 22 13ZM18 29C18 26.79 18.652 24.73 19.774 23.006H10.62C9.66022 23.0065 8.73997 23.3882 8.06152 24.067C7.38307 24.7458 7.00195 25.6663 7.00195 26.626V28.004H7.01195C7.07995 29.564 7.50795 31.518 9.25795 33.114C11.168 34.86 14.468 36 20 36C20.172 36 20.344 36 20.512 35.996C18.8848 34.0281 17.9963 31.5535 18 29ZM38 29C38 31.387 37.0517 33.6761 35.3639 35.364C33.6761 37.0518 31.3869 38 29 38C26.613 38 24.3238 37.0518 22.636 35.364C20.9482 33.6761 20 31.387 20 29C20 26.6131 20.9482 24.3239 22.636 22.6361C24.3238 20.9482 26.613 20 29 20C31.3869 20 33.6761 20.9482 35.3639 22.6361C37.0517 24.3239 38 26.6131 38 29ZM30 25C30 24.7348 29.8946 24.4804 29.7071 24.2929C29.5195 24.1054 29.2652 24 29 24C28.7347 24 28.4804 24.1054 28.2928 24.2929C28.1053 24.4804 28 24.7348 28 25V28H25C24.7347 28 24.4804 28.1054 24.2928 28.2929C24.1053 28.4804 24 28.7348 24 29C24 29.2652 24.1053 29.5196 24.2928 29.7071C24.4804 29.8947 24.7347 30 25 30H28V33C28 33.2652 28.1053 33.5196 28.2928 33.7071C28.4804 33.8947 28.7347 34 29 34C29.2652 34 29.5195 33.8947 29.7071 33.7071C29.8946 33.5196 30 33.2652 30 33V30H33C33.2652 30 33.5195 29.8947 33.7071 29.7071C33.8946 29.5196 34 29.2652 34 29C34 28.7348 33.8946 28.4804 33.7071 28.2929C33.5195 28.1054 33.2652 28 33 28H30V25Z" fill="#575757"/>
</svg>
