<svg width="35" height="35" viewBox="0 0 35 35" fill="none" xmlns="http://www.w3.org/2000/svg">
<path d="M13.6113 8.75005C13.6113 8.4922 13.7138 8.24492 13.8961 8.06259C14.0784 7.88026 14.3257 7.77783 14.5836 7.77783H22.3613C22.6192 7.77783 22.8665 7.88026 23.0488 8.06259C23.2311 8.24492 23.3335 8.4922 23.3335 8.75005C23.3335 9.0079 23.2311 9.25519 23.0488 9.43752C22.8665 9.61985 22.6192 9.72228 22.3613 9.72228H14.5836C14.3257 9.72228 14.0784 9.61985 13.8961 9.43752C13.7138 9.25519 13.6113 9.0079 13.6113 8.75005ZM14.5836 11.6667C14.3257 11.6667 14.0784 11.7692 13.8961 11.9515C13.7138 12.1338 13.6113 12.3811 13.6113 12.6389C13.6113 12.8968 13.7138 13.1441 13.8961 13.3264C14.0784 13.5087 14.3257 13.6112 14.5836 13.6112H22.3613C22.6192 13.6112 22.8665 13.5087 23.0488 13.3264C23.2311 13.1441 23.3335 12.8968 23.3335 12.6389C23.3335 12.3811 23.2311 12.1338 23.0488 11.9515C22.8665 11.7692 22.6192 11.6667 22.3613 11.6667H14.5836ZM13.6113 21.3889C13.6113 21.1311 13.7138 20.8838 13.8961 20.7015C14.0784 20.5191 14.3257 20.4167 14.5836 20.4167H22.3613C22.6192 20.4167 22.8665 20.5191 23.0488 20.7015C23.2311 20.8838 23.3335 21.1311 23.3335 21.3889C23.3335 21.6468 23.2311 21.8941 23.0488 22.0764C22.8665 22.2587 22.6192 22.3612 22.3613 22.3612H14.5836C14.3257 22.3612 14.0784 22.2587 13.8961 22.0764C13.7138 21.8941 13.6113 21.6468 13.6113 21.3889ZM14.5836 24.3056C14.3257 24.3056 14.0784 24.408 13.8961 24.5904C13.7138 24.7727 13.6113 25.02 13.6113 25.2778C13.6113 25.5357 13.7138 25.783 13.8961 25.9653C14.0784 26.1476 14.3257 26.2501 14.5836 26.2501H22.3613C22.6192 26.2501 22.8665 26.1476 23.0488 25.9653C23.2311 25.783 23.3335 25.5357 23.3335 25.2778C23.3335 25.02 23.2311 24.7727 23.0488 24.5904C22.8665 24.408 22.6192 24.3056 22.3613 24.3056H14.5836Z" fill="#575757"/>
<path fill-rule="evenodd" clip-rule="evenodd" d="M3.88867 20.4167C3.88867 20.1588 3.9911 19.9115 4.17343 19.7292C4.35576 19.5469 4.60304 19.4445 4.86089 19.4445H9.72201C9.97986 19.4445 10.2271 19.5469 10.4095 19.7292C10.5918 19.9115 10.6942 20.1588 10.6942 20.4167V25.2778C10.6942 25.5356 10.5918 25.7829 10.4095 25.9653C10.2271 26.1476 9.97986 26.25 9.72201 26.25H4.86089C4.60304 26.25 4.35576 26.1476 4.17343 25.9653C3.9911 25.7829 3.88867 25.5356 3.88867 25.2778V20.4167ZM5.83312 21.3889V24.3056H8.74978V21.3889H5.83312Z" fill="#575757"/>
<path d="M11.3823 9.43731C11.5594 9.25395 11.6574 9.00836 11.6552 8.75345C11.653 8.49853 11.5508 8.25469 11.3705 8.07443C11.1902 7.89417 10.9464 7.79192 10.6915 7.78971C10.4366 7.78749 10.191 7.88549 10.0076 8.06259L6.80609 11.2641L5.549 10.007C5.36564 9.82993 5.12005 9.73194 4.86514 9.73415C4.61023 9.73637 4.36638 9.83862 4.18612 10.0189C4.00587 10.1991 3.90362 10.443 3.9014 10.6979C3.89919 10.9528 3.99718 11.1984 4.17428 11.3818L6.80609 14.0136L11.3823 9.43731Z" fill="#575757"/>
<path fill-rule="evenodd" clip-rule="evenodd" d="M3.88889 0C2.85749 0 1.86834 0.409721 1.13903 1.13903C0.409721 1.86834 0 2.85749 0 3.88889V31.1111C0 32.1425 0.409721 33.1317 1.13903 33.861C1.86834 34.5903 2.85749 35 3.88889 35H23.3333C24.3647 35 25.3539 34.5903 26.0832 33.861C26.8125 33.1317 27.2222 32.1425 27.2222 31.1111V3.88889C27.2222 2.85749 26.8125 1.86834 26.0832 1.13903C25.3539 0.409721 24.3647 0 23.3333 0H3.88889ZM1.94444 3.88889C1.94444 3.37319 2.14931 2.87861 2.51396 2.51396C2.87861 2.14931 3.37319 1.94444 3.88889 1.94444H23.3333C23.849 1.94444 24.3436 2.14931 24.7083 2.51396C25.0729 2.87861 25.2778 3.37319 25.2778 3.88889V31.1111C25.2778 31.6268 25.0729 32.1214 24.7083 32.486C24.3436 32.8507 23.849 33.0556 23.3333 33.0556H3.88889C3.37319 33.0556 2.87861 32.8507 2.51396 32.486C2.14931 32.1214 1.94444 31.6268 1.94444 31.1111V3.88889ZM29.1667 9.72222C29.1667 8.94867 29.474 8.20681 30.0209 7.65983C30.5679 7.11285 31.3098 6.80556 32.0833 6.80556C32.8569 6.80556 33.5987 7.11285 34.1457 7.65983C34.6927 8.20681 35 8.94867 35 9.72222V29.4613L32.0833 33.8363L29.1667 29.4613V9.72222ZM32.0833 8.75C31.8255 8.75 31.5782 8.85243 31.3959 9.03476C31.2135 9.21708 31.1111 9.46437 31.1111 9.72222V11.6667H33.0556V9.72222C33.0556 9.46437 32.9531 9.21708 32.7708 9.03476C32.5885 8.85243 32.3412 8.75 32.0833 8.75ZM32.0833 30.3304L31.1111 28.8721V13.6111H33.0556V28.8721L32.0833 30.3304Z" fill="#575757"/>
</svg>
