<svg width="32" height="28" viewBox="0 0 32 28" fill="none" xmlns="http://www.w3.org/2000/svg">
<path d="M21.3312 0V5.0882H8C3.58125 5.0882 0 8.50618 0 12.7235C0 14.006 0.3625 15.193 0.95 16.2548L4.25 14.0119C4.1 13.6063 4 13.1828 4 12.7294C4 10.6178 5.79375 8.9118 8 8.9118H21.3312V14L32 7.63528V6.36472L21.3312 0ZM27.75 13.9881C27.9 14.3937 28 14.8172 28 15.2706C28 17.3822 26.2125 19.0882 24 19.0882H10.6687V14L0 20.3647V21.6353L10.6687 28V22.9118H24C28.4188 22.9118 32 19.4938 32 15.2765C32 13.994 31.6375 12.807 31.05 11.7452L27.75 13.9881Z" fill="#575757"/>
</svg>
