<svg width="50" height="50" viewBox="0 0 50 50" fill="none" xmlns="http://www.w3.org/2000/svg">
<g clip-path="url(#clip0_350_1612)">
<path d="M26.3957 4.6188L44.104 14.5146C44.6238 14.7742 45.061 15.1735 45.3665 15.6677C45.6719 16.1619 45.8335 16.7315 45.8332 17.3126V20.3125C45.8332 21.75 44.6665 22.9167 43.229 22.9167H41.6665V39.5834H43.7498C44.3024 39.5834 44.8323 39.8029 45.223 40.1936C45.6137 40.5843 45.8332 41.1142 45.8332 41.6667C45.8332 42.2192 45.6137 42.7492 45.223 43.1399C44.8323 43.5306 44.3024 43.75 43.7498 43.75H6.24984C5.6973 43.75 5.1674 43.5306 4.7767 43.1399C4.386 42.7492 4.1665 42.2192 4.1665 41.6667C4.1665 41.1142 4.386 40.5843 4.7767 40.1936C5.1674 39.8029 5.6973 39.5834 6.24984 39.5834H8.33317V22.9167H6.77067C5.33317 22.9167 4.1665 21.75 4.1665 20.3125V17.3126C4.1665 16.2251 4.729 15.225 5.63734 14.6584L23.6019 4.6188C24.0359 4.40172 24.5146 4.2887 24.9998 4.2887C25.4851 4.2887 25.9616 4.40172 26.3957 4.6188ZM37.4998 22.9167H12.4998V39.5834H18.7498V27.0834H22.9165V39.5834H27.0832V27.0834H31.2498V39.5834H37.4998V22.9167ZM24.9998 8.57922L8.33317 17.9542V18.75H41.6665V17.9542L24.9998 8.57922ZM24.9998 12.5C25.5524 12.5 26.0823 12.7195 26.473 13.1102C26.8637 13.5009 27.0832 14.0308 27.0832 14.5834C27.0832 15.1359 26.8637 15.6658 26.473 16.0565C26.0823 16.4472 25.5524 16.6667 24.9998 16.6667C24.4473 16.6667 23.9174 16.4472 23.5267 16.0565C23.136 15.6658 22.9165 15.1359 22.9165 14.5834C22.9165 14.0308 23.136 13.5009 23.5267 13.1102C23.9174 12.7195 24.4473 12.5 24.9998 12.5Z" fill="#575757"/>
</g>
<defs>
<clipPath id="clip0_350_1612">
<rect width="50" height="50" fill="white"/>
</clipPath>
</defs>
</svg>
