<svg width="40" height="40" viewBox="0 0 40 40" fill="none" xmlns="http://www.w3.org/2000/svg">
<path fill-rule="evenodd" clip-rule="evenodd" d="M24.1667 5V11.6667H35V13.3333H24.1667V19.1667H35V6.66667C35 5.74583 34.3033 5 33.4442 5H24.1667ZM24.1667 20.8333H35V26.6667H24.1667V20.8333ZM24.1667 28.3333H35V33.3333C35 34.2542 34.3033 35 33.4442 35H24.1667V28.3333ZM22.5 28.3333V35H13.2225C12.3633 35 11.6667 34.2542 11.6667 33.3333V28.3333H22.5ZM22.5 11.6667H11.6667V6.66667C11.6667 5.74583 12.3633 5 13.2225 5H22.5V11.6667ZM19.21 13.3333V19.1667H22.5V13.3333H19.21ZM19.21 20.8333V26.6667H22.5V20.8333H19.21ZM5 14.1667C5 13.9457 5.0878 13.7337 5.24408 13.5774C5.40036 13.4211 5.61232 13.3333 5.83333 13.3333H16.7983C17.0193 13.3333 17.2313 13.4211 17.3876 13.5774C17.5439 13.7337 17.6317 13.9457 17.6317 14.1667V25.8333C17.6317 26.0543 17.5439 26.2663 17.3876 26.4226C17.2313 26.5789 17.0193 26.6667 16.7983 26.6667H5.83333C5.61232 26.6667 5.40036 26.5789 5.24408 26.4226C5.0878 26.2663 5 26.0543 5 25.8333V14.1667ZM8.00583 15.8333H9.88917L11.4175 18.9617L13.0333 15.8333H14.7933L12.3683 20L14.8483 24.1667H12.9917L11.3258 20.8917L9.6675 24.1667H7.78333L10.3033 19.985L8.00583 15.8333Z" fill="#575757"/>
</svg>
