<svg width="25" height="31" viewBox="0 0 25 31" fill="none" xmlns="http://www.w3.org/2000/svg">
<g id="ph:arrow-right-thin">
<path id="Vector" d="M20.6523 15.6204L13.9753 24.0169C13.9057 24.1044 13.8113 24.1536 13.7128 24.1536C13.6144 24.1536 13.52 24.1044 13.4504 24.0169C13.3808 23.9293 13.3417 23.8106 13.3417 23.6868C13.3417 23.5631 13.3808 23.4443 13.4504 23.3568L19.494 15.7568H4.06821C3.96983 15.7568 3.87548 15.7077 3.80591 15.6202C3.73635 15.5327 3.69727 15.4141 3.69727 15.2903C3.69727 15.1666 3.73635 15.048 3.80591 14.9605C3.87548 14.873 3.96983 14.8239 4.06821 14.8239H19.494L13.4504 7.22388C13.3808 7.13636 13.3417 7.01764 13.3417 6.89386C13.3417 6.77007 13.3808 6.65136 13.4504 6.56383C13.52 6.4763 13.6144 6.42712 13.7128 6.42712C13.8113 6.42712 13.9057 6.4763 13.9753 6.56383L20.6523 14.9603C20.6868 15.0036 20.7142 15.0551 20.7328 15.1117C20.7515 15.1683 20.7611 15.229 20.7611 15.2903C20.7611 15.3516 20.7515 15.4124 20.7328 15.469C20.7142 15.5256 20.6868 15.5771 20.6523 15.6204Z" fill="black"/>
</g>
</svg>
