<svg width="20" height="20" viewBox="0 0 20 20" fill="none" xmlns="http://www.w3.org/2000/svg">
<g id="mdi-light:email">
<path id="Vector" d="M4.16675 4.1665H15.0001C15.6631 4.1665 16.299 4.4299 16.7678 4.89874C17.2367 5.36758 17.5001 6.00346 17.5001 6.6665V14.1665C17.5001 14.8295 17.2367 15.4654 16.7678 15.9343C16.299 16.4031 15.6631 16.6665 15.0001 16.6665H4.16675C3.50371 16.6665 2.86782 16.4031 2.39898 15.9343C1.93014 15.4654 1.66675 14.8295 1.66675 14.1665V6.6665C1.66675 6.00346 1.93014 5.36758 2.39898 4.89874C2.86782 4.4299 3.50371 4.1665 4.16675 4.1665ZM4.16675 4.99984C3.75008 4.99984 3.38341 5.1415 3.10008 5.3915L9.58341 9.58317L16.0667 5.3915C15.7834 5.1415 15.4167 4.99984 15.0001 4.99984H4.16675ZM9.58341 10.5915L2.60841 6.0665C2.54175 6.24984 2.50008 6.45817 2.50008 6.6665V14.1665C2.50008 14.6085 2.67568 15.0325 2.98824 15.345C3.3008 15.6576 3.72472 15.8332 4.16675 15.8332H15.0001C15.4421 15.8332 15.866 15.6576 16.1786 15.345C16.4912 15.0325 16.6667 14.6085 16.6667 14.1665V6.6665C16.6667 6.45817 16.6251 6.24984 16.5584 6.0665L9.58341 10.5915Z" fill="#938A90"/>
</g>
</svg>
