<svg width="23" height="23" viewBox="0 0 23 23" fill="none" xmlns="http://www.w3.org/2000/svg">
<g id="  ">
<path id="Vector" d="M20.897 9.62294H20.1251V9.58317H11.5001V13.4165H16.9161C16.126 15.648 14.0028 17.2498 11.5001 17.2498C8.32464 17.2498 5.75008 14.6753 5.75008 11.4998C5.75008 8.3244 8.32464 5.74984 11.5001 5.74984C12.9659 5.74984 14.2994 6.3028 15.3147 7.20602L18.0254 4.49538C16.3138 2.90023 14.0243 1.9165 11.5001 1.9165C6.20769 1.9165 1.91675 6.20744 1.91675 11.4998C1.91675 16.7922 6.20769 21.0832 11.5001 21.0832C16.7925 21.0832 21.0834 16.7922 21.0834 11.4998C21.0834 10.8573 21.0173 10.23 20.897 9.62294Z" fill="#FFC107"/>
<path id="Vector_2" d="M3.02173 7.03928L6.17033 9.34838C7.02229 7.23909 9.08558 5.74984 11.5001 5.74984C12.9659 5.74984 14.2994 6.3028 15.3147 7.20602L18.0254 4.49538C16.3138 2.90023 14.0244 1.9165 11.5001 1.9165C7.81914 1.9165 4.62694 3.99465 3.02173 7.03928Z" fill="#FF3D00"/>
<path id="Vector_3" d="M11.5001 21.0832C13.9754 21.0832 16.2247 20.1359 17.9252 18.5953L14.9592 16.0855C13.9647 16.8418 12.7495 17.2508 11.5001 17.2498C9.00744 17.2498 6.89096 15.6604 6.09363 13.4424L2.96851 15.8502C4.55455 18.9538 7.77551 21.0832 11.5001 21.0832Z" fill="#4CAF50"/>
<path id="Vector_4" d="M20.8969 9.62327H20.125V9.5835H11.5V13.4168H16.916C16.5381 14.4789 15.8572 15.4069 14.9577 16.0863L14.9591 16.0853L17.9251 18.5952C17.7153 18.7859 21.0833 16.2918 21.0833 11.5002C21.0833 10.8576 21.0172 10.2304 20.8969 9.62327Z" fill="#1976D2"/>
</g>
</svg>
